<svg width="397" height="206" viewBox="0 0 397 206" fill="none" xmlns="http://www.w3.org/2000/svg">
<path d="M4.55114 203V150.636H25.2102C29.1818 150.636 32.5653 151.395 35.3608 152.912C38.1563 154.412 40.2869 156.5 41.7528 159.176C43.2358 161.835 43.9773 164.903 43.9773 168.381C43.9773 171.858 43.2273 174.926 41.7273 177.585C40.2273 180.244 38.054 182.315 35.2074 183.798C32.3778 185.281 28.9517 186.023 24.929 186.023H11.7614V177.151H23.1392C25.2699 177.151 27.0256 176.784 28.4062 176.051C29.804 175.301 30.8438 174.27 31.5256 172.957C32.2244 171.628 32.5739 170.102 32.5739 168.381C32.5739 166.642 32.2244 165.125 31.5256 163.83C30.8438 162.517 29.804 161.503 28.4062 160.787C27.0085 160.054 25.2358 159.688 23.0881 159.688H15.6222V203H4.55114ZM68.2287 203.767C64.1889 203.767 60.7116 202.949 57.7969 201.312C54.8991 199.659 52.6662 197.324 51.098 194.307C49.5298 191.273 48.7457 187.685 48.7457 183.543C48.7457 179.503 49.5298 175.957 51.098 172.906C52.6662 169.855 54.8736 167.477 57.7202 165.773C60.5838 164.068 63.9418 163.216 67.794 163.216C70.3849 163.216 72.7969 163.634 75.0298 164.469C77.2798 165.287 79.2401 166.523 80.9105 168.176C82.598 169.83 83.9105 171.909 84.848 174.415C85.7855 176.903 86.2543 179.818 86.2543 183.159V186.151H53.0923V179.401H76.0014C76.0014 177.832 75.6605 176.443 74.9787 175.233C74.2969 174.023 73.3509 173.077 72.1406 172.395C70.9474 171.696 69.5582 171.347 67.973 171.347C66.3196 171.347 64.8537 171.73 63.5753 172.497C62.3139 173.247 61.3253 174.261 60.6094 175.54C59.8935 176.801 59.527 178.207 59.5099 179.759V186.176C59.5099 188.119 59.8679 189.798 60.5838 191.213C61.3168 192.628 62.348 193.719 63.6776 194.486C65.0071 195.253 66.5838 195.636 68.4077 195.636C69.6179 195.636 70.7259 195.466 71.7315 195.125C72.7372 194.784 73.598 194.273 74.3139 193.591C75.0298 192.909 75.5753 192.074 75.9503 191.085L86.0242 191.75C85.5128 194.17 84.4645 196.284 82.8793 198.091C81.3111 199.881 79.2827 201.278 76.794 202.284C74.3224 203.273 71.4673 203.767 68.2287 203.767ZM93.3622 203V163.727H103.922V170.58H104.331C105.047 168.142 106.249 166.301 107.936 165.057C109.624 163.795 111.567 163.165 113.766 163.165C114.311 163.165 114.899 163.199 115.53 163.267C116.161 163.335 116.714 163.429 117.192 163.548V173.213C116.68 173.06 115.973 172.923 115.07 172.804C114.166 172.685 113.339 172.625 112.589 172.625C110.987 172.625 109.555 172.974 108.294 173.673C107.05 174.355 106.061 175.31 105.328 176.537C104.612 177.764 104.254 179.179 104.254 180.781V203H93.3622ZM155.499 174.926L145.528 175.54C145.357 174.687 144.991 173.92 144.428 173.239C143.866 172.54 143.124 171.986 142.204 171.577C141.3 171.151 140.218 170.938 138.957 170.938C137.269 170.938 135.846 171.295 134.687 172.011C133.528 172.71 132.948 173.648 132.948 174.824C132.948 175.761 133.323 176.554 134.073 177.202C134.823 177.849 136.11 178.369 137.934 178.761L145.042 180.193C148.86 180.977 151.707 182.239 153.582 183.977C155.457 185.716 156.394 188 156.394 190.83C156.394 193.403 155.636 195.662 154.119 197.605C152.619 199.548 150.556 201.065 147.931 202.156C145.323 203.23 142.315 203.767 138.906 203.767C133.707 203.767 129.565 202.685 126.479 200.52C123.411 198.338 121.613 195.372 121.085 191.622L131.798 191.06C132.121 192.645 132.906 193.855 134.15 194.69C135.394 195.509 136.988 195.918 138.931 195.918C140.84 195.918 142.374 195.551 143.533 194.818C144.71 194.068 145.306 193.105 145.323 191.929C145.306 190.94 144.888 190.131 144.07 189.5C143.252 188.852 141.991 188.358 140.286 188.017L133.485 186.662C129.65 185.895 126.795 184.565 124.92 182.673C123.062 180.781 122.133 178.369 122.133 175.438C122.133 172.915 122.815 170.741 124.178 168.918C125.559 167.094 127.494 165.688 129.982 164.699C132.488 163.71 135.42 163.216 138.778 163.216C143.738 163.216 147.641 164.264 150.488 166.361C153.352 168.457 155.022 171.312 155.499 174.926ZM180.997 203.767C177.026 203.767 173.591 202.923 170.693 201.236C167.813 199.531 165.588 197.162 164.02 194.128C162.452 191.077 161.668 187.54 161.668 183.517C161.668 179.46 162.452 175.915 164.02 172.881C165.588 169.83 167.813 167.46 170.693 165.773C173.591 164.068 177.026 163.216 180.997 163.216C184.969 163.216 188.395 164.068 191.276 165.773C194.173 167.46 196.406 169.83 197.974 172.881C199.543 175.915 200.327 179.46 200.327 183.517C200.327 187.54 199.543 191.077 197.974 194.128C196.406 197.162 194.173 199.531 191.276 201.236C188.395 202.923 184.969 203.767 180.997 203.767ZM181.048 195.33C182.855 195.33 184.364 194.818 185.574 193.795C186.784 192.756 187.696 191.341 188.31 189.551C188.94 187.761 189.256 185.724 189.256 183.44C189.256 181.156 188.94 179.119 188.31 177.33C187.696 175.54 186.784 174.125 185.574 173.085C184.364 172.045 182.855 171.526 181.048 171.526C179.224 171.526 177.69 172.045 176.446 173.085C175.219 174.125 174.29 175.54 173.659 177.33C173.045 179.119 172.739 181.156 172.739 183.44C172.739 185.724 173.045 187.761 173.659 189.551C174.29 191.341 175.219 192.756 176.446 193.795C177.69 194.818 179.224 195.33 181.048 195.33ZM226.176 203H207.614V150.636H226.33C231.597 150.636 236.131 151.685 239.932 153.781C243.733 155.861 246.656 158.852 248.702 162.756C250.764 166.659 251.795 171.33 251.795 176.767C251.795 182.222 250.764 186.909 248.702 190.83C246.656 194.75 243.716 197.759 239.881 199.855C236.062 201.952 231.494 203 226.176 203ZM218.685 193.514H225.716C228.989 193.514 231.741 192.935 233.974 191.776C236.224 190.599 237.912 188.784 239.037 186.33C240.179 183.858 240.75 180.67 240.75 176.767C240.75 172.898 240.179 169.736 239.037 167.281C237.912 164.827 236.233 163.02 234 161.861C231.767 160.702 229.014 160.122 225.741 160.122H218.685V193.514ZM270.991 203.741C268.485 203.741 266.252 203.307 264.292 202.438C262.332 201.551 260.781 200.247 259.638 198.526C258.513 196.787 257.951 194.622 257.951 192.031C257.951 189.849 258.352 188.017 259.153 186.534C259.954 185.051 261.045 183.858 262.425 182.955C263.806 182.051 265.374 181.369 267.13 180.909C268.903 180.449 270.761 180.125 272.704 179.938C274.988 179.699 276.829 179.477 278.227 179.273C279.624 179.051 280.638 178.727 281.269 178.301C281.9 177.875 282.215 177.244 282.215 176.409V176.256C282.215 174.636 281.704 173.384 280.681 172.497C279.675 171.611 278.244 171.168 276.386 171.168C274.425 171.168 272.866 171.602 271.707 172.472C270.548 173.324 269.781 174.398 269.406 175.693L259.332 174.875C259.843 172.489 260.849 170.426 262.349 168.688C263.849 166.932 265.783 165.585 268.153 164.648C270.539 163.693 273.3 163.216 276.437 163.216C278.619 163.216 280.707 163.472 282.701 163.983C284.712 164.494 286.494 165.287 288.045 166.361C289.613 167.435 290.849 168.815 291.752 170.503C292.656 172.173 293.107 174.176 293.107 176.511V203H282.778V197.554H282.471C281.84 198.781 280.996 199.864 279.94 200.801C278.883 201.722 277.613 202.446 276.13 202.974C274.647 203.486 272.934 203.741 270.991 203.741ZM274.11 196.224C275.712 196.224 277.127 195.909 278.354 195.278C279.582 194.631 280.545 193.761 281.244 192.67C281.942 191.58 282.292 190.344 282.292 188.963V184.795C281.951 185.017 281.482 185.222 280.886 185.409C280.306 185.58 279.65 185.741 278.917 185.895C278.184 186.031 277.451 186.159 276.718 186.278C275.985 186.381 275.32 186.474 274.724 186.56C273.445 186.747 272.329 187.045 271.374 187.455C270.42 187.864 269.678 188.418 269.15 189.116C268.621 189.798 268.357 190.651 268.357 191.673C268.357 193.156 268.894 194.29 269.968 195.074C271.059 195.841 272.44 196.224 274.11 196.224ZM334.234 174.926L324.262 175.54C324.092 174.687 323.725 173.92 323.163 173.239C322.6 172.54 321.859 171.986 320.938 171.577C320.035 171.151 318.952 170.938 317.691 170.938C316.004 170.938 314.58 171.295 313.421 172.011C312.262 172.71 311.683 173.648 311.683 174.824C311.683 175.761 312.058 176.554 312.808 177.202C313.558 177.849 314.844 178.369 316.668 178.761L323.776 180.193C327.594 180.977 330.441 182.239 332.316 183.977C334.191 185.716 335.129 188 335.129 190.83C335.129 193.403 334.37 195.662 332.853 197.605C331.353 199.548 329.29 201.065 326.665 202.156C324.058 203.23 321.049 203.767 317.64 203.767C312.441 203.767 308.299 202.685 305.214 200.52C302.146 198.338 300.347 195.372 299.819 191.622L310.532 191.06C310.856 192.645 311.64 193.855 312.884 194.69C314.129 195.509 315.722 195.918 317.665 195.918C319.575 195.918 321.109 195.551 322.268 194.818C323.444 194.068 324.04 193.105 324.058 191.929C324.04 190.94 323.623 190.131 322.805 189.5C321.987 188.852 320.725 188.358 319.021 188.017L312.219 186.662C308.384 185.895 305.529 184.565 303.654 182.673C301.796 180.781 300.867 178.369 300.867 175.438C300.867 172.915 301.549 170.741 302.913 168.918C304.293 167.094 306.228 165.688 308.717 164.699C311.222 163.71 314.154 163.216 317.512 163.216C322.472 163.216 326.376 164.264 329.222 166.361C332.086 168.457 333.756 171.312 334.234 174.926ZM352.879 180.295V203H341.987V150.636H352.572V170.656H353.033C353.919 168.338 355.351 166.523 357.328 165.21C359.305 163.881 361.786 163.216 364.768 163.216C367.496 163.216 369.874 163.812 371.902 165.006C373.947 166.182 375.533 167.878 376.658 170.094C377.8 172.293 378.362 174.926 378.345 177.994V203H367.453V179.938C367.47 177.517 366.857 175.634 365.612 174.287C364.385 172.94 362.663 172.267 360.447 172.267C358.964 172.267 357.652 172.582 356.51 173.213C355.385 173.844 354.499 174.764 353.851 175.974C353.22 177.168 352.896 178.608 352.879 180.295Z" fill="#04261B"/>
<rect x="108" width="14" height="109" fill="#04261B"/>
<rect x="108" y="14" width="14" height="92" transform="rotate(-90 108 14)" fill="#04261B"/>
<path d="M197.424 113.973C210.943 114.44 224.075 108.885 233.931 98.5312C243.786 88.177 249.557 73.8713 249.975 58.7612C250.393 43.6511 245.423 28.9743 236.159 17.9595C226.895 6.94477 213.52 0.467101 200 0V14C210.073 14.348 219.784 19.7038 226.687 27.9109C233.59 36.118 237.293 47.0537 236.982 58.3123C236.67 69.5708 232.37 80.23 225.027 87.9449C217.684 95.6598 207.573 100.348 197.5 100L197.424 113.973Z" fill="#04261B"/>
<rect x="165" y="100" width="35" height="14" fill="#04261B"/>
<rect x="142" y="68" width="54" height="14" fill="#04261B"/>
<rect x="144" y="31" width="51" height="14" fill="#04261B"/>
<path d="M134.468 114H179V128H133L134.468 114Z" fill="#04261B"/>
<path d="M132 128L144 31H158.5L146 128H132Z" fill="#04261B"/>
<rect x="179" y="100" width="28" height="14" transform="rotate(90 179 100)" fill="#04261B"/>
<path d="M195 81.9999C198 82 199.884 80.9273 202.718 79.9314C205.553 78.9355 208.181 77.2694 210.436 75.0375C212.691 72.8057 214.525 70.0562 215.823 66.9614C217.122 63.8666 217.857 60.4933 217.981 57.053C218.106 53.6126 217.618 50.1794 216.548 46.9685C215.479 43.7576 213.85 40.8383 211.764 38.3937C209.679 35.949 207.182 34.0316 204.429 32.7618C201.676 31.4919 197.96 30.8827 195 30.9999V44.9999C196.542 44.9388 198.066 45.3383 199.5 45.9999C200.934 46.6616 201.913 47.2262 203 48.4999C204.087 49.7737 204.943 50.327 205.5 51.9999C206.057 53.6729 206.565 54.7074 206.5 56.4999C206.435 58.2925 206.677 58.8875 206 60.4999C205.323 62.1124 204.175 63.8371 203 64.9999C201.825 66.1628 201.477 66.4425 200 66.9614C198.523 67.4803 196.532 68.2117 195 67.9999V81.9999Z" fill="#04261B"/>
</svg>
